<svg id="Group_1177" data-name="Group 1177" xmlns="http://www.w3.org/2000/svg" width="238.711" height="21.064" viewBox="0 0 238.711 21.064">
  <g id="Group_1" data-name="Group 1" transform="translate(83.388 0.369)">
    <path id="Path_1" data-name="Path 1" d="M329.865,13.17c0,3.186-1.633,4.529-4.318,4.529s-4.318-1.422-4.318-4.687V1.4H316.7V13.3c0,5.977,3.344,8.768,8.794,8.768s8.926-2.765,8.926-8.926V1.4h-4.529V13.17Z" transform="translate(-316.7 -1.4)" fill="#98c7bc"/>
  </g>
  <g id="Group_2" data-name="Group 2" transform="translate(27.937 0.369)">
    <path id="Path_2" data-name="Path 2" d="M106.1,21.727h15.482V17.751H110.524V13.486h6.556V9.51h-6.556V5.376h11.059V1.4H106.1Z" transform="translate(-106.1 -1.4)" fill="#98c7bc"/>
  </g>
  <g id="Group_3" data-name="Group 3" transform="translate(111.246 0.369)">
    <path id="Path_3" data-name="Path 3" d="M434.006,21.727V5.771h6.767V1.4H422.5V5.771H429V21.727Z" transform="translate(-422.5 -1.4)" fill="#98c7bc"/>
  </g>
  <g id="Group_4" data-name="Group 4" transform="translate(191.291)">
    <path id="Path_4" data-name="Path 4" d="M737.006,0a10.532,10.532,0,1,0,10.506,10.532A10.507,10.507,0,0,0,737.006,0Zm0,16.509a5.977,5.977,0,1,1,5.977-5.977A5.99,5.99,0,0,1,737.006,16.509Z" transform="translate(-726.5)" fill="#98c7bc"/>
  </g>
  <g id="Group_5" data-name="Group 5" transform="translate(218.885 0.369)">
    <path id="Path_5" data-name="Path 5" d="M851.127,1.4h-3.791l-6.109,6.319L835.092,1.4H831.3V5.192l6.188,6.372L831.3,17.935v3.792h3.792l6.135-6.319,6.109,6.319h3.791V17.935l-6.188-6.372,6.188-6.372Z" transform="translate(-831.3 -1.4)" fill="#98c7bc"/>
  </g>
  <g id="Group_6" data-name="Group 6" transform="translate(138.867 0.369)">
    <path id="Path_6" data-name="Path 6" d="M536.458,7.351,531.06,1.4H527.4V4.8l6.556,7.293v9.637h5V12.09L545.542,4.8V1.4h-3.66Z" transform="translate(-527.4 -1.4)" fill="#98c7bc"/>
  </g>
  <g id="Group_7" data-name="Group 7" transform="translate(53.477 0.079)">
    <path id="Path_7" data-name="Path 7" d="M211,.326l-7.9,17.088v3.528h3.792l1.685-4.029h9.163l1.685,4.029h3.792V17.388L215.317.3H211Zm-.685,12.349,2.528-6.082h.632L216,12.675Z" transform="translate(-203.1 -0.3)" fill="#98c7bc"/>
  </g>
  <g id="Group_8" data-name="Group 8" transform="translate(167.119 0.342)">
    <path id="Path_8" data-name="Path 8" d="M647.655,11.016c1.606-.448,3.212-1.5,3.212-3.607V6.039c0-3.186-2.5-4.739-6.662-4.739H634.7V21.627h10.769c4.582,0,6.188-1.343,6.188-5.055V15.2C651.683,12.7,649.866,11.385,647.655,11.016Zm-8.32-5.766H643.2c1.9,0,2.923.29,2.923,1.817v.579c0,1.5-.922,1.9-2.923,1.9h-3.923V5.25Zm7.636,10.532c0,1.5-.922,1.948-2.9,1.948h-4.74V12.938h4.845c2.291,0,2.791.9,2.791,2.264Z" transform="translate(-634.7 -1.3)" fill="#98c7bc"/>
  </g>
  <g id="Group_9" data-name="Group 9" transform="translate(0 0.342)">
    <path id="Path_9" data-name="Path 9" d="M16.983,16.6V15.229c0-2.528-1.817-3.844-4.029-4.213,1.606-.448,3.212-1.5,3.212-3.607V6.039c0-3.186-2.5-4.739-6.662-4.739H0V21.627H10.769C15.377,21.653,16.983,20.337,16.983,16.6ZM4.634,5.25h3.9c1.9,0,2.923.29,2.923,1.817v.579c0,1.5-.922,1.9-2.923,1.9h-3.9ZM12.27,15.782c0,1.5-.922,1.948-2.9,1.948H4.634V12.938H9.479c2.291,0,2.791.9,2.791,2.264Z" transform="translate(0 -1.3)" fill="#98c7bc"/>
  </g>
</svg>
