<svg xmlns="http://www.w3.org/2000/svg" width="255.439" height="222.384" viewBox="0 0 255.439 222.384">
  <g id="Group_1195" data-name="Group 1195" transform="translate(-0.001)">
    <path id="Path_1001" data-name="Path 1001" d="M-1129.76,5512.241v-74.922h-3.064v77.986Z" transform="translate(1323.081 -5437.319)" fill="#3f303d"/>
    <path id="Path_1002" data-name="Path 1002" d="M-1351.155,5603.725q-5.155-4.734-13.65-4.736t-13.65,4.736q-5.712,5.295-5.711,15.6V5678.8q0,10.309,5.711,15.6,5.014,4.6,13.65,4.6t13.65-4.6q5.71-5.291,5.711-15.6v-31.338h-19.36v3.064h16.3V5678.8q0,8.916-4.736,13.371-4.178,3.761-11.56,3.761-7.521,0-11.56-3.761-4.736-4.315-4.735-13.371v-59.473q0-9.052,4.735-13.371,4.178-3.9,11.56-3.9,7.241,0,11.56,3.9,4.734,4.459,4.736,13.371v9.75h3.064v-9.75Q-1345.445,5609.018-1351.155,5603.725Z" transform="translate(1384.165 -5476.61)" fill="#3f303d"/>
    <path id="Path_1003" data-name="Path 1003" d="M-1108.232,5495.945v-55.562h16.157q7.659,0,11.56,3.76,4.733,4.318,4.736,13.372v5.978l3.064-3.064v-2.914q0-10.306-5.711-15.6-5.014-4.6-13.65-4.6H-1111.3v61.69Z" transform="translate(1317.849 -5437.319)" fill="#3f303d"/>
    <path id="Path_1004" data-name="Path 1004" d="M-1178.52,5448.322l29.187,71.642,2.2-2.2-32.776-80.449h-1.671v97.5h3.064Z" transform="translate(1334.931 -5437.319)" fill="#3f303d"/>
    <path id="Path_1005" data-name="Path 1005" d="M-1356.458,5485.65a13.694,13.694,0,0,0,3.9-2.646q5.71-5.152,5.711-15.6V5457.1q0-10.306-5.711-15.321-4.878-4.456-13.51-4.457h-16.992v97.5h19.36q8.775,0,13.51-4.318,5.71-4.874,5.711-15.321V5505.01q0-10.306-5.571-15.739A18.439,18.439,0,0,0-1356.458,5485.65ZM-1380,5440.383h13.928q16.155,0,16.157,16.713V5467.4q0,9.056-4.735,13.371-3.9,3.9-11.422,3.9H-1380Zm32.453,74.794q0,16.576-16.157,16.574H-1380v-44.013h16.3q7.521,0,11.56,3.9,4.6,4.178,4.6,13.371Z" transform="translate(1383.897 -5437.319)" fill="#3f303d"/>
    <path id="Path_1006" data-name="Path 1006" d="M-1083.877,5678.855v10.024q0,16.577-16.3,16.575h-16.157V5646.4l-3.064-3.063v65.179h19.221q8.776,0,13.65-4.317,5.71-5.014,5.711-15.321v-6.96Z" transform="translate(1319.817 -5487.388)" fill="#3f303d"/>
    <path id="Path_1007" data-name="Path 1007" d="M-1145.623,5633.515v-11l-3.124-3.124c.032.564.06,1.133.06,1.725v12.4q0,8.916-4.736,13.371-4.178,3.761-11.561,3.761h-16.3v-46.938h16.3c.2,0,.379.016.572.02l-3.084-3.084h-16.847v97.5h3.064v-44.431h17.828l14.485,44.431h3.2l-14.625-44.849a17.394,17.394,0,0,0,9.053-4.179Q-1145.624,5643.824-1145.623,5633.515Z" transform="translate(1335.602 -5477.012)" fill="#3f303d"/>
    <path id="Path_1008" data-name="Path 1008" d="M-1283.19,5679.061q0,9.056-4.736,13.371-4.178,3.9-11.56,3.9-7.243,0-11.56-3.9-4.737-4.455-4.736-13.371v-78.416h-3.064v78.416q0,10.309,5.711,15.6,5.15,4.737,13.65,4.735t13.65-4.735q5.709-5.292,5.711-15.6v-78.416h-3.064Z" transform="translate(1368.29 -5477.012)" fill="#3f303d"/>
    <path id="Path_1009" data-name="Path 1009" d="M-1050.762,5711.97V5725.2h3.064v-10.164Z" transform="translate(1303.137 -5504.068)" fill="#3f303d"/>
    <path id="Path_1010" data-name="Path 1010" d="M-1297.278,5437.319h-19.359v97.5h3.064v-44.431h17.828l14.485,44.431h3.2l-14.625-44.849a17.4,17.4,0,0,0,9.053-4.179q5.709-5.291,5.711-15.6v-12.4q0-10.307-5.711-15.739Q-1288.781,5437.32-1297.278,5437.319Zm16.3,32.871q0,8.915-4.736,13.372-4.178,3.76-11.561,3.76h-16.3v-46.938h16.3q7.241,0,11.561,3.9,4.734,4.737,4.736,13.51Z" transform="translate(1367.754 -5437.319)" fill="#3f303d"/>
    <path id="Path_1011" data-name="Path 1011" d="M-1235.807,5600.645l-21.032,97.5h3.2l5.989-27.717h26.881l5.851,27.717h3.2l-21.031-97.5Zm-11.282,66.716,12.815-59.751,12.813,59.751Z" transform="translate(1353.221 -5477.012)" fill="#3f303d"/>
    <path id="Path_1012" data-name="Path 1012" d="M-1233.968,5437.319l-21.032,97.5h3.2l5.99-27.717h26.881l5.851,27.717h3.2l-21.032-97.5Zm-11.282,66.716,12.815-59.752,12.813,59.752Z" transform="translate(1352.774 -5437.319)" fill="#3f303d"/>
  </g>
</svg>
