<svg xmlns="http://www.w3.org/2000/svg" width="18.32" height="18.319" viewBox="0 0 18.32 18.319">
  <g id="Group_1270" data-name="Group 1270" transform="translate(0.701 0.7)">
    <circle id="Ellipse_65" data-name="Ellipse 65" cx="2.226" cy="2.226" r="2.226" transform="translate(6.233 6.233)" fill="none" stroke="#3f303d" stroke-linecap="square" stroke-miterlimit="10" stroke-width="1.4"/>
    <path id="Path_1037" data-name="Path 1037" d="M-397.554,319.1v-2.671l-2.042-.511a6.622,6.622,0,0,0-.575-1.385l1.084-1.806-1.889-1.889-1.806,1.084a6.635,6.635,0,0,0-1.385-.574l-.511-2.042h-2.671l-.511,2.042a6.62,6.62,0,0,0-1.385.575l-1.806-1.084-1.889,1.889,1.084,1.806a6.635,6.635,0,0,0-.574,1.384l-2.043.511V319.1l2.043.511a6.631,6.631,0,0,0,.574,1.385l-1.084,1.806,1.889,1.889,1.806-1.084a6.64,6.64,0,0,0,1.385.574l.511,2.043h2.671l.51-2.043a6.64,6.64,0,0,0,1.385-.574l1.806,1.084,1.889-1.889-1.084-1.806a6.643,6.643,0,0,0,.574-1.384Z" transform="translate(414.473 -309.302)" fill="none" stroke="#3f303d" stroke-linecap="square" stroke-miterlimit="10" stroke-width="1.4"/>
  </g>
</svg>
