<svg xmlns="http://www.w3.org/2000/svg" width="19.896" height="12.979" viewBox="0 0 19.896 12.979">
  <g id="Group_1186" data-name="Group 1186" transform="translate(-16.346 -121.472)">
    <g id="Group_1187" data-name="Group 1187" transform="translate(16.346 121.472)">
      <path id="Path_976" data-name="Path 976" d="M26.294,134.451a10.908,10.908,0,0,1-9.856-6.291l-.092-.2.092-.2a10.866,10.866,0,0,1,19.712,0l.092.2-.092.2A10.909,10.909,0,0,1,26.294,134.451Zm-8.905-6.49a9.923,9.923,0,0,0,17.812,0,9.923,9.923,0,0,0-17.812,0Z" transform="translate(-16.346 -121.472)" fill="#98c7bc"/>
    </g>
    <g id="Group_1188" data-name="Group 1188" transform="translate(22.994 124.661)">
      <path id="Path_977" data-name="Path 977" d="M40.8,138.22a3.3,3.3,0,1,1,3.3-3.3A3.3,3.3,0,0,1,40.8,138.22Zm0-5.657a2.357,2.357,0,1,0,2.357,2.357A2.36,2.36,0,0,0,40.8,132.563Z" transform="translate(-37.5 -131.62)" fill="#98c7bc"/>
    </g>
  </g>
</svg>
